# xmcd
# Track frame offsets:
# 150
# 14942
# 28147
# 41642
# 55370
# 68720
# 80165
# 91335
# 105720
# 115860
# 129465
# 139747
# 151520
# 167705
# 181857
# 194797
# 206565
# 218610
# 228782
# 239187
# 254590
# 265545
# 277365
# 289090
#
# Disc length: 4014 seconds
# Revision: 0
# Processed by: cddbd v1.4PL0 Copyright (c) Steve Scherf et al.
# Submitted via: VisiTrax 2.9.5.181 - For more info visit www.synapsa.com
#
DISCID=6e0fac18
DTITLE=Clarence Garlow - Clarence Garlow
DYEAR=1900
DGENRE=
TTITLE0=Bon Ton Roula
TTITLE1=In A Boogie Mood
TTITLE2=She's So Fine
TTITLE3=Blues As You Like It
TTITLE4=Jumpin' For Joy
TTITLE5=New Bon Ton Roula
TTITLE6=I Called You Up Daddy
TTITLE7=I'm Just A Cry Cry Baby
TTITLE8=Sound The Bell
TTITLE9=Carry On
TTITLE10=Foggy Blues
TTITLE11=I'll Never Hold It Against You
TTITLE12=Come Baby Come
TTITLE13=Cry Cry Baby
TTITLE14=New Bon Ton Roula
TTITLE15=Hey Mr. Bon Ton
TTITLE16=Dreaming
TTITLE17=I'm Hurt
TTITLE18=You Got Me Crying
TTITLE19=Nothing To Talk About
TTITLE20=Sound The Bell
TTITLE21=No No Baby
TTITLE22=Crawfishin'
TTITLE23=Route 90
EXTD=La Cienega 701\nhttp://www.rockola.net
EXTT0=
EXTT1=
EXTT2=
EXTT3=
EXTT4=
EXTT5=
EXTT6=
EXTT7=
EXTT8=
EXTT9=
EXTT10=
EXTT11=
EXTT12=
EXTT13=
EXTT14=
EXTT15=
EXTT16=
EXTT17=
EXTT18=
EXTT19=
EXTT20=
EXTT21=
EXTT22=
EXTT23=
PLAYORDER=
